<?xml version="1.0" encoding="UTF-8"?>
<svg width="240px" height="66px" viewBox="0 0 240 66" version="1.1" xmlns="http://www.w3.org/2000/svg" xmlns:xlink="http://www.w3.org/1999/xlink">
    <title>ElectricSQL-logo-black</title>
    <g id="ElectricSQL-logo-black" stroke="none" stroke-width="1" fill="none" fill-rule="evenodd">
        <g id="Wordmark" transform="translate(62.678571, 22.088710)" fill="#0E0F10" fill-rule="nonzero">
            <path d="M5.85267691,3.84041465 L21.6964286,3.84041465 L21.6964286,0 L5.85267691,0 C2.61700531,0 0,2.61149418 0,5.82436178 L0,15.7320894 C0,18.9452652 2.61700531,21.5564516 5.85267691,21.5564516 L21.6964286,21.5564516 L21.6964286,17.7163447 L5.85267691,17.7163447 C4.75706365,17.7163447 3.86736239,16.8202888 3.86736239,15.7320894 L3.86736239,11.6616563 L17.8290657,11.6616563 L17.8290657,7.82124161 L3.86736239,7.82124161 L3.86736239,5.82436131 C3.86736239,4.73646959 4.75706365,3.84041371 5.85267691,3.84041371 L5.85267691,3.84041465 Z" id="Path"></path>
            <path d="M31.3145422,17.7137869 C29.9320874,17.5344705 28.8337072,16.4459413 28.6528192,15.0754977 L28.6528192,0 L24.7767857,0 L24.7767857,14.6909848 C24.7767857,15.779822 25.0350635,16.8045736 25.5003367,17.7137864 C26.1592405,19.0842301 27.2703639,20.1860075 28.6528187,20.8518189 C29.5703114,21.3001094 30.6040444,21.5564516 31.702114,21.5564516 L42.7232143,21.5564516 L42.7232143,17.7137864 L31.3145422,17.7137869 Z" id="Path"></path>
            <path d="M51.5223198,3.84041465 L67.3660714,3.84041465 L67.3660714,0 L51.5223198,0 C48.2866482,0 45.6696429,2.61149418 45.6696429,5.82436178 L45.6696429,15.7320894 C45.6696429,18.9452652 48.2866482,21.5564516 51.5223198,21.5564516 L67.3660714,21.5564516 L67.3660714,17.7163447 L51.5223198,17.7163447 C50.4267065,17.7163447 49.5370052,16.8202888 49.5370052,15.7320894 L49.5370052,11.6616563 L63.4987086,11.6616563 L63.4987086,7.82124161 L49.5370052,7.82124161 L49.5370052,5.82436131 C49.5370052,4.73646959 50.4267065,3.84041371 51.5223198,3.84041371 L51.5223198,3.84041465 Z" id="Path"></path>
            <path d="M81.0267857,3.84041465 L91.875,3.84041465 L91.875,0 L81.0267857,0 C75.0356756,0 70.1785714,4.82607574 70.1785714,10.7782258 C70.1785714,16.7306836 75.0356756,21.5564516 81.0267857,21.5564516 L91.875,21.5564516 L91.875,17.7163447 L81.0267857,17.7163447 C77.17445,17.7163447 74.0436136,14.6057073 74.0436136,10.7782253 C74.0436136,6.95074339 77.17445,3.84041418 81.0267857,3.84041418 L81.0267857,3.84041465 Z" id="Path"></path>
            <polygon id="Path" points="95.0892857 0 95.0892857 3.84588935 104.001914 3.84588935 104.001914 21.5564516 107.873086 21.5564516 107.873086 3.84588935 116.785714 3.84588935 116.785714 0"></polygon>
            <path d="M134.196295,11.5976087 C134.197527,11.5976087 134.2003,11.5976087 134.201532,11.5976087 C134.790538,11.5335607 135.353975,11.3672825 135.879213,11.1240236 C137.889597,10.215035 139.285714,8.17966433 139.285714,5.82436178 C139.285714,4.2243941 138.632324,2.76514741 137.582464,1.7025056 C136.532295,0.652796489 135.085041,0 133.471435,0 L119.866071,0 L119.866071,21.5564516 L123.707858,21.5564516 L123.707858,11.648724 L127.549952,11.648724 C128.945761,11.648724 130.162281,12.3911262 130.828301,13.4919506 L130.920411,13.662232 L132.979776,17.7021805 L134.951961,21.5552201 L139.267539,21.5552201 L137.308293,17.7021805 L134.196295,11.5976087 Z M123.713095,7.80861713 L123.713095,3.84041465 L133.471435,3.84041465 C134.150086,3.84041465 134.59831,4.16034654 134.854614,4.40360546 C135.072411,4.63393167 135.443621,5.12044997 135.443621,5.82436178 C135.443621,6.60525431 134.995397,7.30916612 134.278239,7.62940576 C134.022243,7.75719358 133.753309,7.80861713 133.471436,7.80861713 L123.713095,7.80861713 Z" id="Shape"></path>
            <polygon id="Path" points="146.25 21.5564516 146.25 0 142.366071 0 142.366071 21.5564516"></polygon>
            <path d="M160.044643,3.84041465 L170.892857,3.84041465 L170.892857,0 L160.044643,0 C154.053533,0 149.196429,4.82607574 149.196429,10.7782258 C149.196429,16.7306836 154.053533,21.5564516 160.044643,21.5564516 L170.892857,21.5564516 L170.892857,17.7163447 L160.044643,17.7163447 C156.192307,17.7163447 153.061471,14.6057073 153.061471,10.7782253 C153.061471,6.95074339 156.192307,3.84041418 160.044643,3.84041418 L160.044643,3.84041465 Z" id="Path"></path>
        </g>
        <g id="Icon" transform="translate(6.294643, 5.721774)" fill="#0E0F10">
            <path d="M7.87792414,26.156001 C4.2999746,25.4720462 1.94041556,24.5886759 0.799247,23.50589 C0.266415667,23.0356711 0,23.0356711 0,23.50589 L0,27.6057714 C0,29.2079354 1.95950653,30.5512654 5.8785196,31.6357611 C6.84121969,31.9016486 7.85132547,32.1346206 8.90883693,32.3346774 L13.3928571,26.9062139 C11.543057,26.7486883 9.70240777,26.4982993 7.87792414,26.156001 L7.87792414,26.156001 Z" id="Path" fill-rule="nonzero"></path>
            <path d="M19.9925425,10.9112903 C14.5098236,10.9112903 9.80651709,11.3711347 5.88262303,12.2908235 C1.95872897,13.2105122 -0.00214478993,14.3084994 0,15.5847848 L0,17.8477535 C0,19.2185943 1.96087552,20.3876039 5.88262303,21.3547824 C9.07153825,22.1426025 12.7747669,22.6090191 16.9923091,22.7540323 L26.6517857,11.1656994 C24.5765008,10.9965174 22.3567531,10.9117143 19.9925425,10.9112903 Z" id="Path" fill-rule="nonzero"></path>
            <path d="M7.90312664,36.7586652 C4.38022884,35.9492618 2.01119223,34.9279727 0.79601681,33.6947978 C0.571696453,33.4576977 0.382626438,33.3655275 0.229447679,33.4100235 C0.0762689214,33.4545195 0,33.5765656 0,33.7653558 L0,37.3250356 C0,39.0807206 1.98940111,40.6832122 5.96820333,42.1325104 C8.98776897,43.2343161 12.3918838,43.9159524 16.1805478,44.1774194 L18.8839286,37.9632354 C14.8200983,37.9060262 11.1598309,37.5045028 7.90312664,36.7586652 Z" id="Path" fill-rule="nonzero"></path>
            <polygon id="Path-2" points="16.2053571 31.4124111 26.9445426 31.4040916 16.6822846 54.2903226 39.3488148 25.4531084 28.2713436 25.4531084 42.8571429 0"></polygon>
        </g>
    </g>
</svg>