<?xml version="1.0" encoding="UTF-8"?>
<svg width="64px" height="64px" viewBox="0 0 64 64" version="1.1" xmlns="http://www.w3.org/2000/svg" xmlns:xlink="http://www.w3.org/1999/xlink">
    <title>ElectricSQL-icon-black</title>
    <g id="ElectricSQL-icon-black" stroke="none" stroke-width="1" fill="none" fill-rule="evenodd">
        <path d="M16.4621365,31.3072705 C12.3766266,30.5104265 9.68234549,29.4812527 8.37929316,28.219749 C7.7708755,27.6719187 7.46666667,27.6719187 7.46666667,28.219749 L7.46666667,32.9963308 C7.46666667,34.8629379 9.70414467,36.4279894 14.1791007,37.6914852 C15.2783674,38.0012583 16.4317646,38.2726833 17.6392925,38.5057602 L22.7594063,32.1813088 C20.6471974,31.9977831 18.5454376,31.7060664 16.4621365,31.3072705 L16.4621365,31.3072705 Z" id="Path" fill="#0E0F10" fill-rule="nonzero"></path>
        <path d="M30.3657338,13.6652188 C24.0859348,13.6652188 18.6988595,14.1982533 14.204508,15.2643225 C9.71015651,16.3303916 7.46421007,17.6031376 7.46666667,19.0825604 L7.46666667,21.7057098 C7.46666667,23.2947377 9.71261513,24.6498104 14.204508,25.7709278 C17.8570291,26.6841396 22.0986348,27.2247925 26.9293251,27.3928864 L37.9931007,13.9601203 C35.61611,13.7640108 33.0736543,13.6657103 30.3657338,13.6652188 Z" id="Path" fill="#0E0F10" fill-rule="nonzero"></path>
        <path d="M16.5109302,43.7029615 C12.4793592,42.7657841 9.76825607,41.5832723 8.37762079,40.155426 C8.12091069,39.8808969 7.90454075,39.7741764 7.72924443,39.8256966 C7.5539481,39.8772168 7.46666667,40.0185295 7.46666667,40.2371224 L7.46666667,44.3587403 C7.46666667,46.3915812 9.74331852,48.2470453 14.2966222,49.9251326 C17.7521847,51.2008715 21.6478215,51.9901122 25.9835329,52.2928549 L29.0772563,45.0976876 C24.4266473,45.0314473 20.2378719,44.5665386 16.5109302,43.7029615 Z" id="Path" fill="#0E0F10" fill-rule="nonzero"></path>
        <polygon id="Zap" fill="#0E0F10" points="26.0068993 37.4799286 38.3073523 37.4702847 26.5531627 64 52.514963 30.5719059 39.8270442 30.5719059 56.5333333 1.06666667"></polygon>
    </g>
</svg>