<?xml version="1.0" encoding="UTF-8"?>
<svg width="1792px" height="496px" viewBox="0 0 1792 496" version="1.1" xmlns="http://www.w3.org/2000/svg" xmlns:xlink="http://www.w3.org/1999/xlink">
    <title>Logo</title>
    <defs>
        <linearGradient x1="49.349633%" y1="39.2902728%" x2="50.7357151%" y2="57.1072683%" id="linearGradient-1">
            <stop stop-color="#08FFBD" offset="0%"></stop>
            <stop stop-color="#0EFDED" offset="100%"></stop>
        </linearGradient>
    </defs>
    <g id="Logo" stroke="none" stroke-width="1" fill="none" fill-rule="evenodd">
        <rect fill="#0E0F10" x="0" y="0" width="1792" height="496"></rect>
        <g id="ELECTRIC" transform="translate(468.000000, 166.000000)" fill="#FFFFFF" fill-rule="nonzero">
            <path d="M43.6999876,28.861298 L162,28.861298 L162,0 L43.6999876,0 C19.5403063,0 0,19.6257744 0,43.7709612 L0,118.229035 C0,142.376538 19.5403063,162 43.6999876,162 L162,162 L162,133.141015 L43.6999876,133.141015 C35.5194086,133.141015 28.8763059,126.407019 28.8763059,118.229035 L28.8763059,87.6391137 L133.123691,87.6391137 L133.123691,58.7778157 L28.8763059,58.7778157 L28.8763059,43.7709577 C28.8763059,35.5952866 35.5194086,28.8612909 43.6999876,28.8612909 L43.6999876,28.861298 Z" id="Path"></path>
            <path d="M233.815249,133.121792 C223.492919,131.774203 215.29168,123.593741 213.94105,113.294649 L213.94105,0 L185,0 L185,110.404977 C185,118.587753 186.928474,126.288917 190.402514,133.121789 C195.322329,143.42088 203.618717,151.700905 213.941046,156.704578 C220.791659,160.073549 228.510198,162 236.709118,162 L319,162 L319,133.121789 L233.815249,133.121792 Z" id="Path"></path>
            <path d="M384.699988,28.861298 L503,28.861298 L503,0 L384.699988,0 C360.540306,0 341,19.6257744 341,43.7709612 L341,118.229035 C341,142.376538 360.540306,162 384.699988,162 L503,162 L503,133.141015 L384.699988,133.141015 C376.519409,133.141015 369.876306,126.407019 369.876306,118.229035 L369.876306,87.6391137 L474.123691,87.6391137 L474.123691,58.7778157 L369.876306,58.7778157 L369.876306,43.7709577 C369.876306,35.5952866 376.519409,28.8612909 384.699988,28.8612909 L384.699988,28.861298 Z" id="Path"></path>
            <path d="M605,28.861298 L686,28.861298 L686,0 L605,0 C560.266378,0 524,36.2686904 524,81 C524,125.733622 560.266378,162 605,162 L686,162 L686,133.141015 L605,133.141015 C576.235893,133.141015 552.858982,109.764103 552.858982,81 C552.858982,52.2358897 576.235893,28.8612945 605,28.8612945 L605,28.861298 Z" id="Path"></path>
            <polygon id="Path" points="710 0 710 28.9024412 776.547622 28.9024412 776.547622 162 805.452378 162 805.452378 28.9024412 872 28.9024412 872 0"></polygon>
            <path d="M1001.99901,87.1577866 C1002.00821,87.1577866 1002.02891,87.1577866 1002.0381,87.1577866 C1006.43602,86.676456 1010.64301,85.4268503 1014.56479,83.5987227 C1029.57566,76.7675358 1040,61.4714168 1040,43.7709612 C1040,31.7469617 1035.12135,20.7805018 1027.28239,12.7945875 C1019.44114,4.90586452 1008.63497,0 996.586715,0 L895,0 L895,162 L923.685339,162 L923.685339,87.541926 L952.372977,87.541926 C962.795017,87.541926 971.878364,93.1211908 976.851316,101.394053 L977.539066,102.673743 L992.91566,133.034569 L1007.64131,161.990745 L1039.86429,161.990745 L1025.23525,133.034569 L1001.99901,87.1577866 Z M923.724442,58.6829408 L923.724442,28.861298 L996.586718,28.861298 C1001.65398,28.861298 1005.00072,31.2656346 1006.91445,33.0937622 C1008.54067,34.8246986 1011.31237,38.4809574 1011.31237,43.7709612 C1011.31237,49.6394869 1007.96563,54.9294908 1002.61085,57.3361403 C1000.69942,58.2964851 998.691373,58.6829408 996.586725,58.6829408 L923.724442,58.6829408 Z" id="Shape"></path>
            <polygon id="Path" points="1092 162 1092 0 1063 0 1063 162"></polygon>
            <path d="M1195,28.861298 L1276,28.861298 L1276,0 L1195,0 C1150.26638,0 1114,36.2686904 1114,81 C1114,125.733622 1150.26638,162 1195,162 L1276,162 L1276,133.141015 L1195,133.141015 C1166.23589,133.141015 1142.85898,109.764103 1142.85898,81 C1142.85898,52.2358897 1166.23589,28.8612945 1195,28.8612945 L1195,28.861298 Z" id="Path"></path>
        </g>
        <g id="Electric_FooterIcon" transform="translate(47.000000, 43.000000)">
            <path d="M58.8218336,196.56631 C32.106477,191.426287 14.4884362,184.787625 5.96771094,176.650325 C1.98923698,173.116558 0,173.116558 0,176.650325 L0,207.461555 C0,219.50206 14.6309821,229.597388 43.8929464,237.747538 C51.0811071,239.745722 58.6232302,241.496543 66.5193158,243 L100,202.204274 C86.188159,201.020446 72.4446447,199.138734 58.8218336,196.56631 L58.8218336,196.56631 Z" id="Path" fill="#FFFFFF" fill-rule="nonzero"></path>
            <path d="M149.277651,82 C108.340016,82 73.2219943,85.4558002 43.9235853,92.3674006 C14.6251763,99.2790011 -0.0160144315,107.530541 0,117.122019 L0,134.128571 C0,144.430648 14.6412039,153.215933 43.9235853,160.484425 C67.7341522,166.405013 95.3849264,169.910204 126.875908,171 L199,83.9119227 C183.504539,82.6404941 166.930423,82.0031865 149.277651,82 Z" id="Path" fill="#FFFFFF" fill-rule="nonzero"></path>
            <path d="M59.0100122,276.246938 C32.7057087,270.164149 15.016902,262.489007 5.94359218,253.221511 C4.26866685,251.439668 2.85694407,250.746994 1.71320934,251.081388 C0.569474613,251.415783 0,252.332978 0,253.751765 L0,280.503298 C0,293.697537 14.8541949,305.740504 44.5625848,316.632199 C67.108675,324.912436 92.5260657,330.035036 120.814757,332 L141,285.299466 C110.656734,284.869531 83.3267377,281.852021 59.0100122,276.246938 Z" id="Path" fill="#FFFFFF" fill-rule="nonzero"></path>
            <polygon id="Path-2" fill="url(#linearGradient-1)" points="306 0 121 236.069029 195.544698 236.006507 124.310531 408 281.647385 191.283966 204.754519 191.283966"></polygon>
        </g>
    </g>
</svg>