<?xml version="1.0" encoding="UTF-8"?>
<svg width="64px" height="64px" viewBox="0 0 64 64" version="1.1" xmlns="http://www.w3.org/2000/svg" xmlns:xlink="http://www.w3.org/1999/xlink">
    <title>ElectricSQL-icon-alt</title>
    <defs>
        <linearGradient x1="14.5335548%" y1="22.5063742%" x2="84.8768947%" y2="68.5689934%" id="linearGradient-1">
            <stop stop-color="#08FFBD" offset="0%"></stop>
            <stop stop-color="#0EFDED" offset="100%"></stop>
        </linearGradient>
        <linearGradient x1="14.5335548%" y1="38.2438318%" x2="84.8768947%" y2="57.9400298%" id="linearGradient-2">
            <stop stop-color="#08FFBD" offset="0%"></stop>
            <stop stop-color="#0EFDED" offset="100%"></stop>
        </linearGradient>
        <linearGradient x1="14.5335548%" y1="30.7646672%" x2="84.8768947%" y2="62.9914028%" id="linearGradient-3">
            <stop stop-color="#08FFBD" offset="0%"></stop>
            <stop stop-color="#0EFDED" offset="100%"></stop>
        </linearGradient>
    </defs>
    <g id="ElectricSQL-icon-alt" stroke="none" stroke-width="1" fill="none" fill-rule="evenodd">
        <rect fill="#0E0F10" x="0" y="0" width="64" height="64"></rect>
        <path d="M23.8799758,32.2907092 L18.7418162,38.5662426 C17.5300325,38.3349685 16.3725702,38.0656429 15.2694291,37.7582658 C10.7762433,36.5040486 8.53087938,34.9511024 8.53333535,33.0994272 L8.53333535,28.3597909 C8.53333535,27.816198 8.83861837,27.816198 9.44918038,28.3597909 C10.7587917,29.6145023 13.4625687,30.6357157 17.5605115,31.4234313 C19.651155,31.8191426 21.7603225,32.1086029 23.8799758,32.2907092 L23.8799758,32.2907092 Z" id="Path" fill="url(#linearGradient-1)" fill-rule="nonzero"></path>
        <path d="M31.4264632,13.4626263 C25.148293,13.4626263 19.7626149,13.9985595 15.2694291,15.0704259 C10.7762433,16.1422924 8.53087938,17.4219596 8.53333535,18.9094276 L8.53333535,21.5468417 C8.53333535,23.1445108 10.7787013,24.5069524 15.2694291,25.6341665 C18.9210029,26.5523444 23.1615085,27.0959373 27.9909458,27.2649453 L39.0518519,13.7591315 C36.6754776,13.563438 34.1336814,13.4653442 31.4264632,13.4648501 L31.4264632,13.4626263 Z" id="Path" fill="url(#linearGradient-2)" fill-rule="nonzero"></path>
        <path d="M17.6261395,43.6083143 C13.5729319,42.6644392 10.8472789,41.4734765 9.44918038,40.0354261 C9.19109257,39.7589349 8.97356142,39.6514518 8.79732432,39.7033402 C8.62108722,39.7552286 8.53333736,39.8975511 8.53333736,40.1177063 L8.53333736,44.2687797 C8.53333736,46.3161484 10.8222075,48.1848727 15.3999478,49.8749525 C18.8740555,51.1598086 22.7905994,51.9546897 27.1495796,52.259596 L30.2599064,45.0130078 C25.5843385,44.9462942 21.3730829,44.478063 17.6261395,43.6083143 Z" id="Path" fill="url(#linearGradient-3)" fill-rule="nonzero"></path>
        <polygon id="Zap" fill="#FFFFFF" points="55.4666667 1.06666667 27.1407407 37.4799286 38.5545115 37.4702847 27.6476265 64 51.7379619 30.5719059 39.9646559 30.5719059"></polygon>
    </g>
</svg>