<?xml version="1.0" encoding="UTF-8"?>
<svg width="1075px" height="1075px" viewBox="0 0 1075 1075" version="1.1" xmlns="http://www.w3.org/2000/svg" xmlns:xlink="http://www.w3.org/1999/xlink">
    <title>Footer Icon Copy</title>
    <g id="Footer-Icon-Copy" stroke="none" stroke-width="1" fill="none" fill-rule="evenodd">
        <g id="Electric_FooterIcon" transform="translate(122.000000, 8.000000)" fill="#0E0F10">
            <path d="M152.348549,508.868636 C83.1557755,495.459878 37.5250497,478.14163 15.4563713,456.913891 C5.15212377,447.69537 0,447.69537 0,456.913891 L0,537.291012 C0,568.701027 37.8942437,595.036665 113.682731,616.297926 C132.300067,621.51058 151.834166,626.077938 172.285028,630 L259,523.576367 C223.227332,520.488119 187.63163,515.579306 152.348549,508.868636 L152.348549,508.868636 Z" id="Path" fill-rule="nonzero"></path>
            <path d="M387.821837,212 C281.466273,212 190.230005,220.969549 114.113033,238.908647 C37.996061,256.847744 -0.0416053321,278.264662 0,303.159398 L0,347.3 C0,374.039098 38.0377005,396.841353 114.113033,415.706767 C175.972647,431.073684 247.80908,440.171429 329.622333,443 L517,216.962406 C476.742949,213.662406 433.683562,212.008271 387.821837,212 Z" id="Path" fill-rule="nonzero"></path>
            <path d="M153.174925,717.455025 C84.8956693,701.684831 38.9800434,681.786313 15.4280478,657.759473 C11.0803693,653.13988 7.41589737,651.344059 4.44705403,652.211007 C1.4782107,653.077955 0,655.455869 0,659.134205 L0,728.490032 C0,762.697317 38.5576975,793.919824 115.673093,822.157554 C174.196986,843.624834 240.174043,856.905649 313.604263,862 L366,740.924541 C287.236628,739.809894 216.294936,731.986722 153.174925,717.455025 Z" id="Path" fill-rule="nonzero"></path>
            <polygon id="Path-2" points="314 612.737994 522.32221 612.575713 323.251593 1059 762.944313 496.494413 548.059927 496.494413 831 0"></polygon>
        </g>
    </g>
</svg>