<?xml version="1.0" encoding="UTF-8"?>
<svg width="64px" height="64px" viewBox="0 0 64 64" version="1.1" xmlns="http://www.w3.org/2000/svg" xmlns:xlink="http://www.w3.org/1999/xlink">
    <title>ElectricSQL-icon</title>
    <defs>
        <linearGradient x1="49.3580544%" y1="39.2902728%" x2="50.7261884%" y2="57.1072683%" id="linearGradient-1">
            <stop stop-color="#08FFBD" offset="0%"></stop>
            <stop stop-color="#0EFDED" offset="100%"></stop>
        </linearGradient>
    </defs>
    <g id="ElectricSQL-icon" stroke="none" stroke-width="1" fill="none" fill-rule="evenodd">
        <rect fill="#0E0F10" x="0" y="0" width="64" height="64"></rect>
        <path d="M17.5371546,30.3810662 C13.4478517,29.5907867 10.7510692,28.5700912 9.44680711,27.31898 C8.83782459,26.7756628 8.53333333,26.7756628 8.53333333,27.31898 L8.53333333,32.0562119 C8.53333333,33.9074417 10.7728886,35.4596001 15.2519992,36.7126871 C16.3522864,37.0199082 17.5067545,37.2890972 18.7154034,37.520254 L23.8402707,31.2479041 C21.7261009,31.0658902 19.6223897,30.7765768 17.5371546,30.3810662 L17.5371546,30.3810662 Z" id="Path" fill="#FFFFFF" fill-rule="nonzero"></path>
        <path d="M31.4086365,12.4667937 C25.1353545,12.4667937 19.7538698,13.0020698 15.2641824,14.0726221 C10.774495,15.1431744 8.53087928,16.4212727 8.53333333,17.906917 L8.53333333,20.5410975 C8.53333333,22.1368078 10.776951,23.497579 15.2641824,24.623411 C18.912913,25.5404632 23.1501169,26.0833897 27.975794,26.2521905 L39.028088,12.7629354 C36.653564,12.5660011 34.1137469,12.4672872 31.4086365,12.4667937 Z" id="Path" fill="#FFFFFF" fill-rule="nonzero"></path>
        <path d="M17.6315157,42.6421297 C13.5759099,41.6969194 10.848644,40.5042717 9.44971826,39.0641868 C9.19147774,38.7873045 8.97381788,38.6796693 8.79747649,38.7316312 C8.62113511,38.783593 8.53333333,38.9261168 8.53333333,39.1465835 L8.53333333,43.3035296 C8.53333333,45.3537948 10.8235578,47.2251628 15.4040068,48.9176337 C18.8801701,50.2043075 22.7990315,51.0003132 27.1605909,51.3056508 L30.272758,44.0488106 C25.5944236,43.9820025 21.3806762,43.5131089 17.6315157,42.6421297 Z" id="Path" fill="#FFFFFF" fill-rule="nonzero"></path>
        <polygon id="Zap" fill="url(#linearGradient-1)" points="55.4666667 0 27.1160745 36.413262 38.5397844 36.403618 27.6234016 62.9333333 51.734715 29.5052393 39.9511567 29.5052393"></polygon>
    </g>
</svg>