<?xml version="1.0" encoding="UTF-8"?>
<svg width="1075px" height="1075px" viewBox="0 0 1075 1075" version="1.1" xmlns="http://www.w3.org/2000/svg" xmlns:xlink="http://www.w3.org/1999/xlink">
    <title>Icon</title>
    <defs>
        <linearGradient x1="49.3499142%" y1="39.2902728%" x2="50.735397%" y2="57.1072683%" id="linearGradient-1">
            <stop stop-color="#08FFBD" offset="0%"></stop>
            <stop stop-color="#0EFDED" offset="100%"></stop>
        </linearGradient>
    </defs>
    <g id="Icon" stroke="none" stroke-width="1" fill="none" fill-rule="evenodd">
        <g id="Electric_FooterIcon" transform="translate(144.000000, 12.000000)">
            <path d="M151.172112,506.887492 C82.513646,493.702214 37.2352809,476.672603 15.3370171,455.798659 C5.11233904,446.73378 0,446.73378 0,455.798659 L0,534.836162 C0,565.722676 37.6016241,591.619387 112.804872,612.526294 C131.278445,617.652071 150.661702,622.143306 170.954642,626 L257,521.350094 C221.503569,518.313317 186.182737,513.486318 151.172112,506.887492 L151.172112,506.887492 Z" id="Path" fill="#FFFFFF" fill-rule="nonzero"></path>
            <path d="M384.071142,208 C278.744162,208 188.390257,216.93072 113.009425,234.792159 C37.6285942,252.653598 -0.0412029594,273.977802 0,298.764769 L0,342.714286 C0,369.33763 37.669831,392.041174 113.009425,410.824919 C174.270784,426.125313 245.412474,435.183673 326.434497,438 L512,212.940924 C472.132282,209.655209 429.48933,208.008235 384.071142,208 Z" id="Path" fill="#FFFFFF" fill-rule="nonzero"></path>
            <path d="M152.756415,711.455025 C84.6637139,695.684831 38.8735406,675.786313 15.3858947,651.759473 C11.050095,647.13988 7.39563535,645.344059 4.43490361,646.211007 C1.47417187,647.077955 0,649.455869 0,653.134205 L0,722.490032 C0,756.697317 38.4523486,787.919824 115.357046,816.157554 C173.721038,837.624834 239.51783,850.905649 312.747421,856 L365,734.924541 C286.451828,733.809894 215.703966,725.986722 152.756415,711.455025 Z" id="Path" fill="#FFFFFF" fill-rule="nonzero"></path>
            <polygon id="Path-2" fill="url(#linearGradient-1)" points="788 0 312 607.530589 503.801493 607.369687 320.517908 1050 725.341379 492.274913 527.498114 492.274913"></polygon>
        </g>
    </g>
</svg>